<svg xmlns="http://www.w3.org/2000/svg" viewBox="0 0 108 108" width="108" height="108">
  <!-- Purple background -->
  <rect width="108" height="108" fill="#7B1FA2"/>

  <!-- === Mirrored eighth note, scaled up === -->
  <!-- Based on Wikimedia 8thNote.svg, mirrored horizontally -->
  <!-- Note head: slightly bigger than v2 -->
  <g transform="translate(6, 10) scale(0.88)" fill="white">
    <path d="M 69.5,85 C 75.5,80 72.5,72 61,69.8 C 57,68.8 53.5,68.5 48.5,69.2 C 45.5,70 44.9,71.5 44.9,71.5 C 44.9,51.2 45.0,17.0 45.0,0.2 C 44.0,0.2 43.3,0.1 41.9,0.1 C 41.9,1.1 41.9,1.9 41.9,2.7 C 41.9,3.6 41.9,4.1 41.8,4.7 C 40.8,11.0 39.4,13.5 32.4,21.2 C 23.5,31.1 20.9,37.0 20.9,44.9 C 21.0,52.3 27.5,68.1 28.9,67.5 C 26.9,61.9 24.1,55.9 23.4,50.9 C 22.5,44.8 25.0,36.2 29.0,31.7 C 32.2,27.9 39.8,24.6 41.9,24.6 C 41.9,24.6 42.0,61.0 42.0,75.5 C 42.0,79 43,84 44.5,85.5 C 50,91 64.5,90 69.5,85 z"/>
  </g>

  <!-- === Ledger line ABOVE the note head, centered on it === -->
  <rect x="36" y="70.5" width="38" height="2.2" rx="1" fill="white"/>

  <!-- === Sharp symbol (♯) to the right === -->
  <g transform="translate(68, 36)" fill="white">
    <rect x="5" y="0" width="2.3" height="26" rx="0.8"/>
    <rect x="14.5" y="-3" width="2.3" height="26" rx="0.8"/>
    <rect x="1" y="5" width="20" height="3" rx="0.8" transform="rotate(-10, 11, 6.5)"/>
    <rect x="1" y="15" width="20" height="3" rx="0.8" transform="rotate(-10, 11, 16.5)"/>
  </g>
</svg>
